# xmcd
#
# Track frame offsets:
#	150
#	11095
#	24790
#	33125
#	44873
#	58133
#	68190
#	76090
#	84698
#	94223
#	100285
#	109203
#	119115
#	130963
#	144983
#	152670
#	162850
#	172443
#	182708
#	190798
#	199670
#	206085
#	217258
#	223435
#	234360
#	244353
#	251725
#	259895
#	269765
#	282525
#
# Disc length: 4014 seconds
#
# Revision: 1
# Processed by: cddbd v1.5.1PL0 Copyright (c) Steve Scherf et al.
# Submitted via: CDex 1.50Beta5
#
DISCID=dd0fac1e
DTITLE=さまざまなアーティスト - み〜んなどうよう Disc 2
DYEAR=1900
DGENRE=
TTITLE0=南の島のハメハメハ大王
TTITLE1=とんでったバナナ
TTITLE2=五匹のこぶたとチャールストン
TTITLE3=おもちゃのチャチャチャ
TTITLE4=ドレミの歌
TTITLE5=クラリネットこわしちゃった
TTITLE6=たいこのおけいこ
TTITLE7=手をたたきましょう
TTITLE8=おへそ
TTITLE9=あら どこだ
TTITLE10=そうだったらいいのにな
TTITLE11=あさ いちばん早いのは
TTITLE12=さんぽ
TTITLE13=はたらくくるま1
TTITLE14=はしれ ちょうとっきゅう
TTITLE15=汽車ぽっぽ
TTITLE16=ねこふんじゃった
TTITLE17=大きな栗の木の下で
TTITLE18=こぶたぬきつねこ
TTITLE19=ホ・ホ・ホ
TTITLE20=やまのワルツ
TTITLE21=とけいのうた
TTITLE22=くじらのとけい
TTITLE23=うみ
TTITLE24=めだかの学校
TTITLE25=かたつむり
TTITLE26=しゃぼん玉
TTITLE27=赤とんぼ
TTITLE28=いとまきのうた
TTITLE29=大きな古時計
EXTD=
EXTT0=
EXTT1=
EXTT2=
EXTT3=
EXTT4=
EXTT5=
EXTT6=
EXTT7=
EXTT8=
EXTT9=
EXTT10=
EXTT11=
EXTT12=
EXTT13=
EXTT14=
EXTT15=
EXTT16=
EXTT17=
EXTT18=
EXTT19=
EXTT20=
EXTT21=
EXTT22=
EXTT23=
EXTT24=
EXTT25=
EXTT26=
EXTT27=
EXTT28=
EXTT29=
PLAYORDER=
